<?xml version="1.0" encoding="utf-8"?>
<!-- Generator: Adobe Illustrator 23.0.6, SVG Export Plug-In . SVG Version: 6.00 Build 0)  -->
<svg version="1.1" id="Layer_1" xmlns="http://www.w3.org/2000/svg" xmlns:xlink="http://www.w3.org/1999/xlink" x="0px" y="0px"
	 viewBox="0 0 600 610" style="enable-background:new 0 0 600 610;" xml:space="preserve">
<style type="text/css">
	.st0{fill:#52FFB6;}
</style>
<g>
	<path class="st0" d="M191.8,591.8C135.1,577.6,81.6,547,47.7,499.4C14.1,452.1,1.5,391.7,8.3,334c6.3-53.6,48.3-92.2,75.4-138.9
		c31.2-53.8,41.4-123.9,95.2-155c57.7-33.3,130-28.9,194.5-12.3c67.5,17.3,134.3,49.3,173.7,106.8c38.9,56.7,45,130,35.3,198
		c-8.8,61.6-44,114.9-86.5,160.4c-38.2,41-87.9,66.2-141.2,83.5C301.6,593.8,246,605.5,191.8,591.8z"/>
</g>
</svg>
