<?xml version="1.0" encoding="utf-8"?>
<!-- Generator: Adobe Illustrator 23.0.6, SVG Export Plug-In . SVG Version: 6.00 Build 0)  -->
<svg version="1.1" id="Layer_1" xmlns="http://www.w3.org/2000/svg" xmlns:xlink="http://www.w3.org/1999/xlink" x="0px" y="0px"
	 viewBox="0 0 680 760" style="enable-background:new 0 0 680 760;" xml:space="preserve">
<g>
	<defs>
		<path id="SVGID_1_" d="M489.5,67.9c62,36.8,105.5,96.8,134.1,163c29.3,67.7,46.6,142.3,28.8,213.9c-17.8,71.7-71.4,126-125.8,176
			c-57.1,52.4-117.2,107.5-194.1,117.5c-79.3,10.3-172.1-3.4-225.5-63c-51.8-57.8-16-149-32.5-224.9
			c-12.6-57.8-63.8-107.2-52.2-165.2c11.8-58.8,69.3-93.2,112.4-134.9c47.3-45.8,86.7-105,150.8-119.9
			C354.5,14.5,428.5,31.8,489.5,67.9z"/>
	</defs>
	<clipPath id="SVGID_2_">
		<use xlink:href="#SVGID_1_"  style="overflow:visible;"/>
	</clipPath>
	<g style="clip-path:url(#SVGID_2_);">
		
			<image style="overflow:visible;" width="1200" height="1800" xlink:href="speaker-photo.jpg"  transform="matrix(0.6585 0 0 0.6585 -81.8061 -115.6774)">
		</image>
	</g>
</g>
</svg>
