<?xml version="1.0" encoding="utf-8"?>
<!-- Generator: Adobe Illustrator 23.0.6, SVG Export Plug-In . SVG Version: 6.00 Build 0)  -->
<svg version="1.1" id="Capa_1" xmlns="http://www.w3.org/2000/svg" xmlns:xlink="http://www.w3.org/1999/xlink" x="0px" y="0px"
	 viewBox="0 0 297 297" style="enable-background:new 0 0 297 297;" xml:space="preserve">
<style type="text/css">
	.st0{fill:#000D53;}
</style>
<path class="st0" d="M278.8,164c12.1-20.5,18.2-41.2,18.2-61.6c0-43.8-35.6-79.4-79.4-79.4c-29.6,0-55.5,16.3-69.1,40.4
	C134.9,39.3,109,23,79.4,23C35.6,23,0,58.7,0,102.4c0,23.1,7.8,46.6,23.3,69.8c12,18,28.7,36,49.5,53.3
	c35.1,29.2,69.6,46.6,71.1,47.4c1.4,0.7,3,1.1,4.6,1.1s3.1-0.4,4.6-1.1c0.9-0.4,14.1-7.1,32.2-18.8c0.5,1.2,1.3,2.4,2.2,3.3
	c1.9,1.9,4.5,3,7.3,3l0,0h45.7c5.7,0,10.3-4.6,10.3-10.3v-21.9h21.8c5.7,0,10.3-4.6,10.3-10.3v-45.8c0-2.7-1.1-5.3-3-7.3
	C279.5,164.5,279.1,164.3,278.8,164z M148.5,252.1c-23.4-12.7-128-73.9-128-149.7c0-32.5,26.4-58.9,58.9-58.9s58.9,26.4,58.9,58.9
	c0,5.7,4.6,10.3,10.3,10.3s10.3-4.6,10.3-10.3c0-32.5,26.4-58.9,58.9-58.9s58.9,26.4,58.9,58.9c0,21.2-8.2,41.2-20.6,59.4h-5.2
	v-21.9c0-2.7-1.1-5.3-3-7.3c-1.9-1.9-4.5-3-7.3-3h-45.7c-5.7,0-10.3,4.6-10.3,10.3v21.9h-21.8c-5.7,0-10.3,4.6-10.3,10.3v45.8
	c0,2.7,1.1,5.3,3,7.3c1.9,1.9,4.5,3,7.3,3l0,0h21.8v1.6C168.7,240.7,155.2,248.4,148.5,252.1z M262.3,207.6h-21.8
	c-5.7,0-10.3,4.6-10.3,10.3v21.9h-25.1v-21.9c0-2.7-1.1-5.3-3-7.3c-1.9-1.9-4.5-3-7.3-3l0,0H173v-25.3h21.8
	c5.7,0,10.3-4.6,10.3-10.3v-21.9h25.1V172c0,2.7,1.1,5.3,3,7.3c1.9,1.9,4.5,3,7.3,3l0,0h21.8V207.6z"/>
</svg>
