<?xml version="1.0" encoding="utf-8"?>
<!-- Generator: Adobe Illustrator 23.0.6, SVG Export Plug-In . SVG Version: 6.00 Build 0)  -->
<svg version="1.1" id="Capa_1" xmlns="http://www.w3.org/2000/svg" xmlns:xlink="http://www.w3.org/1999/xlink" x="0px" y="0px"
	 viewBox="0 0 284.7 284.7" style="enable-background:new 0 0 284.7 284.7;" xml:space="preserve">
<style type="text/css">
	.st0{fill:#000D53;}
</style>
<g>
	<path class="st0" d="M160.7,118.6c-7.2,0-13.7,2.7-18.7,7.1c-5-4.4-11.6-7.1-18.8-7.1c-15.9,0-28.8,13.1-28.8,29.1
		c0,11.5,7.5,23.7,22.2,36.4c9.9,8.6,19.8,14.4,20.2,14.6c1.6,0.9,3.3,1.4,5.1,1.4s3.5-0.5,5.1-1.4c0.4-0.2,10.3-6.1,20.2-14.6
		c14.7-12.7,22.2-25,22.2-36.4C189.5,131.7,176.6,118.6,160.7,118.6z M142,178.4c-12.5-8.4-27.5-21.9-27.5-30.6c0-5,3.9-9.1,8.8-9.1
		c4.8,0,8.8,4.1,8.8,9.1c0,5.5,4.5,10,10,10s10-4.5,10-10c0-5,3.9-9.1,8.7-9.1s8.8,4.1,8.8,9.1C169.5,156.5,154.5,170,142,178.4z"/>
	<path class="st0" d="M70.9,202.8c8-5.9,13.2-15.4,13.2-26.1c0-18-14.6-32.6-32.5-32.6s-32.5,14.6-32.5,32.6
		c0,10.7,5.2,20.2,13.2,26.1C13.4,210.5,0,229.2,0,250.9c0,5.5,4.5,10,10,10h83.2l0,0c5.5,0,10-4.5,10-10c0-0.2,0-0.5,0-0.7
		C102.9,228.8,89.6,210.4,70.9,202.8z M51.6,164.1c6.9,0,12.5,5.6,12.5,12.6c0,6.9-5.6,12.6-12.5,12.6s-12.5-5.6-12.5-12.6
		C39.1,169.7,44.7,164.1,51.6,164.1z M21.6,240.9c4.2-12.7,16-21.9,30-21.9s25.8,9.2,30,21.9H21.6z"/>
	<path class="st0" d="M284.7,250.2c-0.3-21.4-13.6-39.8-32.3-47.4c8-5.9,13.2-15.4,13.2-26.1c0-18-14.6-32.6-32.5-32.6
		s-32.5,14.6-32.5,32.6c0,10.7,5.2,20.2,13.2,26.1c-18.9,7.7-32.3,26.4-32.3,48.1c0,5.5,4.5,10,10,10h83.2l0,0c5.5,0,10-4.5,10-10
		C284.7,250.7,284.7,250.4,284.7,250.2z M233.1,164.1c6.9,0,12.5,5.6,12.5,12.6c0,6.9-5.6,12.6-12.5,12.6s-12.5-5.6-12.5-12.6
		C220.6,169.7,226.2,164.1,233.1,164.1z M203.1,240.9c4.2-12.7,16-21.9,30-21.9s25.8,9.2,30,21.9H203.1z"/>
	<path class="st0" d="M38.4,96.2c4.9,2.5,10.9,0.6,13.5-4.3C67.3,62.2,97.6,43.8,131,43.8c31.8,0,60.9,16.8,76.8,44.1l-9.4-5.9
		c-4.7-2.9-10.9-1.5-13.8,3.2c-2.9,4.7-1.5,10.9,3.2,13.8l28,17.5c1.6,1,3.5,1.5,5.3,1.5c3.3,0,6.6-1.7,8.5-4.7l17.5-28
		c2.9-4.7,1.5-10.9-3.2-13.8S233,70,230.1,74.7l-3.6,5.7c-19.2-34.9-55.6-56.6-95.6-56.6c-40.9,0-78,22.6-96.8,58.9
		C31.6,87.6,33.5,93.6,38.4,96.2z"/>
</g>
</svg>
