<?xml version="1.0" encoding="utf-8"?>
<!-- Generator: Adobe Illustrator 23.0.6, SVG Export Plug-In . SVG Version: 6.00 Build 0)  -->
<svg version="1.1" id="Capa_1" xmlns="http://www.w3.org/2000/svg" xmlns:xlink="http://www.w3.org/1999/xlink" x="0px" y="0px"
	 viewBox="0 0 297 297" style="enable-background:new 0 0 297 297;" xml:space="preserve">
<style type="text/css">
	.st0{fill:#000D53;}
</style>
<path class="st0" d="M259.2,49.6C232.2,19.5,192,0,148.5,0S64.8,19.5,37.8,49.6C14.6,75.6,0,111,0,148.5s14.6,72.9,37.8,98.9
	c27,30.1,67.2,49.6,110.7,49.6s83.7-19.4,110.7-49.6c23.3-26,37.8-61.3,37.8-98.9C297,111,282.4,75.6,259.2,49.6z M275.7,138h-15
	c0.2-1.8,0.3-3.7,0.3-5.5c0-23.7-13.4-44.4-33-54.7c7.4-2.4,14.3-5.2,20.8-8.3C263.8,88.8,273.6,112.3,275.7,138z M159,126.9
	c2.7-20.2,19.9-35.9,40.7-35.9c22.7,0,41.1,18.6,41.1,41.5c0,37.7-62.4,84.2-92.3,102.6c-29.9-18.4-92.3-64.8-92.3-102.6
	c0-22.9,18.4-41.5,41.1-41.5c20.8,0,37.9,15.6,40.7,35.8l0.8,8.4c1.2,4.2,5.1,7.4,9.7,7.4c4.6,0,8.5-3.1,9.7-7.4L159,126.9z
	 M233.6,53.5c-6.5,2.7-13.5,5.2-20.8,7.2c-1.9-5-4-9.9-6.3-14.5c-2.8-5.7-5.9-10.9-9.1-15.6C210.7,36.2,222.9,44,233.6,53.5z
	 M159,23.2c10.4,4.6,20.5,15.8,28.7,32.3c1.6,3.1,3,6.4,4.4,9.8c-10.6,1.8-21.8,3-33.1,3.5V23.2L159,23.2z M109.3,55.5
	c8.2-16.5,18.3-27.7,28.7-32.3v45.6c-11.4-0.4-22.5-1.6-33.1-3.5C106.3,61.9,107.7,58.7,109.3,55.5z M99.7,30.6
	c-3.2,4.7-6.3,9.9-9.1,15.6c-2.3,4.6-4.4,9.4-6.3,14.5c-7.4-2.1-14.4-4.5-20.8-7.2C74.1,44,86.3,36.2,99.7,30.6z M48.3,69.6
	c6.4,3.1,13.4,5.9,20.8,8.3c-19.6,10.3-33,30.9-33,54.7c0,1.8,0.1,3.6,0.3,5.5h-15C23.4,112.3,33.2,88.8,48.3,69.6z M21.3,159H42
	c6.2,14.1,17.1,28.9,32.7,44.3c0.9,4.5,1.9,8.9,3.1,13.1c-10.6,3-20.6,6.7-29.5,11C33.2,208.2,23.4,184.7,21.3,159z M63.4,243.5
	c6.5-2.7,13.5-5.1,20.8-7.2c1.9,5,4,9.9,6.3,14.5c2.8,5.7,5.9,10.9,9.1,15.6C86.3,260.8,74.1,253,63.4,243.5z M109.3,241.5
	c-1.6-3.1-3-6.4-4.4-9.8c0.9-0.1,1.7-0.3,2.6-0.4c12.9,9.7,24.2,17.1,30.6,21.1v21.4C127.6,269.2,117.5,258,109.3,241.5z
	 M187.7,241.5c-8.2,16.5-18.3,27.7-28.7,32.3v-21.4c6.4-4,17.7-11.3,30.6-21.1c0.9,0.1,1.7,0.3,2.6,0.4
	C190.7,235.1,189.3,238.3,187.7,241.5z M197.3,266.4c3.2-4.7,6.3-9.9,9.1-15.6c2.3-4.6,4.4-9.4,6.3-14.5c7.4,2.1,14.4,4.5,20.8,7.2
	C222.9,253,210.7,260.8,197.3,266.4z M248.7,227.4c-9-4.3-18.9-8-29.5-11c1.1-4.3,2.2-8.7,3.1-13.1c15.6-15.4,26.5-30.2,32.7-44.3
	h20.7C273.6,184.7,263.8,208.2,248.7,227.4z"/>
</svg>
